#!OML:ASF F:\VICON\USERDATA\INSTALL\Justin_Nancy\Justin_Nancy.ASF
:FULLY-SPECIFIED
:DEGREES
159
root 7.30613 17.2641 1.75659 131.086 85.1089 122.686
lowerback 13.3844 0.0217771 -10.9944
upperback 0.385115 -1.54604 0.885714
thorax -6.81494 -0.36103 7.48278
lowerneck -20.0797 -4.90443 -8.15014
upperneck 11.5286 -5.29738 5.62074
head 7.16851 -2.39436 2.52179
rclavicle -7.69048e-015 1.68967e-015
rhumerus -49.2085 -1.06026 -73.6082
rradius 118.878
rwrist -15.0987
rhand -12.8549 29.671
rfingers 7.12502
rthumb 13.233 0.111018
lclavicle -7.69048e-015 1.68967e-015
lhumerus -40.9421 -10.7037 94.1665
lradius 89.6189
lwrist 17.4508
lhand -18.0277 5.35232
lfingers 7.12502
lthumb 8.24356 35.1715
rfemur -38.1488 -5.50496 19.5964
rtibia 45.0891
rfoot -8.83821 -0.0474799
rtoes 15.7687
lfemur -0.222575 -10.0796 -30.355
ltibia 52.5995
lfoot 27.4545 -8.73676
ltoes 6.7341
160
root 7.64051 17.2118 1.78555 140.106 85.0696 132.6
lowerback 13.8832 0.0505219 -9.24567
upperback 0.459632 -1.32632 0.246158
thorax -7.10818 -0.306197 5.76007
lowerneck -20.0211 -5.04531 -7.48489
upperneck 11.8972 -5.73174 5.84272
head 7.29916 -2.55118 2.43425
rclavicle 2.16924e-014 1.3418e-014
rhumerus -48.704 -1.96648 -73.5967
rradius 119.33
rwrist -15.4696
rhand -13.9582 29.2818
rfingers 7.12502
rthumb 12.1694 -0.344241
lclavicle 2.16924e-014 1.3418e-014
lhumerus -41.3181 -10.9773 92.8018
lradius 88.8793
lwrist 18.321
lhand -17.3417 5.30991
lfingers 7.12502
lthumb 8.90566 35.102
rfemur -36.6033 -5.29299 20.2528
rtibia 46.4849
rfoot -10.5726 -0.319875
rtoes 11.5121
lfemur -1.24928 -10.3947 -29.4811
ltibia 56.253
lfoot 26.4462 -8.37967
ltoes 6.90359
161
root 7.97075 17.1536 1.83367 150.544 85.0183 143.502
lowerback 13.9498 -0.0435237 -7.69951
upperback 0.486216 -1.2364 -0.132
thorax -7.16793 -0.318788 4.45849
lowerneck -19.9968 -5.08163 -7.04419
upperneck 11.991 -5.95043 6.08247
head 7.33643 -2.61121 2.41559
rclavicle -3.62782e-015 -1.17283e-014
rhumerus -47.7811 -2.65985 -73.52
rradius 119.661
rwrist -15.4978
rhand -14.3407 29.1633
rfingers 7.12502
rthumb 11.8006 -0.484211
lclavicle -3.62782e-015 -1.17283e-014
lhumerus -41.6522 -10.9668 91.5569
lradius 88.413
lwrist 18.5796
lhand -16.9269 5.78503
lfingers 7.12502
lthumb 9.30587 35.5596
rfemur -35.1405 -3.79402 20.6154
rtibia 47.3091
rfoot -12.4207 -0.984301
rtoes 15.8621
lfemur -2.96566 -10.4112 -27.9987
ltibia 59.9558
lfoot 25.0821 -8.7865
ltoes 6.84483
162
root 8.30301 17.0968 1.90677 165.981 84.8563 159.426
lowerback 14.0447 -0.20397 -6.64778
upperback 0.490372 -1.26236 0.296847
thorax -7.22324 -0.360188 4.33103
lowerneck -19.9828 -5.17188 -7.57376
upperneck 12.1231 -5.97828 6.33847
head 7.40475 -2.62583 2.58167
rclavicle -1.72446e-014 1.05356e-014
rhumerus -46.4946 -2.47009 -72.9734
rradius 119.883
rwrist -15.8164
rhand -14.2451 29.1208
rfingers 7.12502
rthumb 11.8927 -0.521389
lclavicle -1.72446e-014 1.05356e-014
lhumerus -42.1944 -10.2391 91.1278
lradius 88.1181
lwrist 18.0195
lhand -17.5033 6.19996
lfingers 7.12502
lthumb 8.74968 35.9986
rfemur -33.3093 -2.17195 21.8502
rtibia 47.7383
rfoot -14.1853 -3.60294
rtoes 11.8381
lfemur -4.79233 -10.2096 -25.5882
ltibia 63.6041
lfoot 23.3996 -9.56844
ltoes 6.84691
163
root 8.63727 17.0448 1.98741 185.923 84.4514 179.784
lowerback 13.9638 -0.122141 -5.83328
upperback 0.495323 -0.933697 1.47832
thorax -7.20451 -0.210148 5.07388
lowerneck -20.0604 -5.29193 -8.55663
upperneck 12.3359 -5.85958 6.27275
head 7.50639 -2.62302 2.731
rclavicle -3.2023e-015 3.06874e-015
rhumerus -45.0211 -1.87493 -71.4908
rradius 119.992
rwrist -15.9665
rhand -15.4505 28.4414
rfingers 7.12502
rthumb 10.7302 -1.26461
lclavicle -3.2023e-015 3.06874e-015
lhumerus -42.7634 -9.30822 91.7543
lradius 87.8759
lwrist 17.2425
lhand -18.5843 6.01919
lfingers 7.12502
lthumb 7.7064 35.8588
rfemur -31.4399 -0.770222 24.0221
rtibia 47.8776
rfoot -15.6955 -5.35565
rtoes 9.01516
lfemur -6.83941 -9.85034 -22.4528
ltibia 67.2105
lfoot 21.3164 -10.6987
ltoes 5.36224
164
root 8.95502 16.9861 2.03645 195.895 83.6692 190.002
lowerback 13.8103 -0.0748268 -5.21385
upperback 0.472154 -0.700493 2.284
thorax -7.1705 -0.10223 5.54117
lowerneck -19.9465 -5.27019 -8.96981
upperneck 12.2836 -5.66156 5.93034
head 7.45578 -2.58404 2.70983
rclavicle -1.59773e-014 -1.59028e-014
rhumerus -43.7928 -1.40832 -70.4794
rradius 120.308
rwrist -15.6514
rhand -16.3626 27.9838
rfingers 7.12502
rthumb 9.85033 -1.76581
lclavicle -1.59773e-014 -1.59028e-014
lhumerus -43.2503 -8.39449 92.1336
lradius 87.8333
lwrist 17.1411
lhand -20.8914 6.06624
lfingers 7.12502
lthumb 5.4792 35.9754
rfemur -29.8927 -0.349614 25.4732
rtibia 47.9218
rfoot -17.2687 -5.44508
rtoes 9.23465
lfemur -9.15568 -9.82746 -20.3757
ltibia 70.6724
lfoot 19.3721 -11.1632
ltoes 3.78795
165
root 9.26239 16.9247 2.05916 200.505 82.9119 194.665
lowerback 13.6151 -0.0202023 -4.2815
upperback 0.278533 -0.474774 2.32552
thorax -7.30521 -0.016496 5.00606
lowerneck -19.47 -5.22456 -8.22567
upperneck 12.1722 -5.79745 5.66676
head 7.31945 -2.64565 2.49281
rclavicle -1.30204e-014 -1.20265e-014
rhumerus -43.0083 -1.89796 -70.3879
rradius 120.607
rwrist -15.1591
rhand -16.2564 27.9506
rfingers 7.12502
rthumb 9.95281 -1.79407
lclavicle -1.30204e-014 -1.20265e-014
lhumerus -44.0931 -8.45425 91.6682
lradius 87.9442
lwrist 16.9955
lhand -22.7431 6.19037
lfingers 7.12502
lthumb 3.69121 36.1381
rfemur -28.5683 -0.293437 26.4699
rtibia 47.8557
rfoot -18.6481 -6.26433
rtoes 8.89652
lfemur -11.7829 -9.63225 -18.81
ltibia 73.9005
lfoot 17.7048 -11.1346
ltoes 3.14008
166
root 9.56745 16.871 2.08257 204.885 82.3367 199.083
lowerback 13.4373 0.274301 -3.27693
upperback 0.0500551 0.0541823 2.0876
thorax -7.50982 0.206881 4.07188
lowerneck -19.1393 -5.43999 -7.08268
upperneck 12.3343 -6.41053 5.54497
head 7.31968 -2.89923 2.19712
rclavicle 6.40459e-015 4.39811e-015
rhumerus -42.1415 -2.82752 -69.5966
rradius 120.57
rwrist -15.3061
rhand -16.5281 27.4455
rfingers 7.12502
rthumb 9.69062 -2.31157
lclavicle 6.40459e-015 4.39811e-015
lhumerus -45.078 -9.36732 91.077
lradius 88.1041
lwrist 16.5623
lhand -19.1918 7.68326
lfingers 7.12502
lthumb 7.12001 37.5435
rfemur -27.2266 -0.252782 27.5756
rtibia 47.7071
rfoot -19.8727 -7.36095
rtoes 7.48618
lfemur -14.4492 -8.93932 -17.2187
ltibia 76.7855
lfoot 16.0852 -11.1466
ltoes 1.7139
167
root 9.8737 16.8275 2.12284 206.794 82.023 201.158
lowerback 13.3796 0.282001 -3.11738
upperback -0.0407909 0.112155 2.34611
thorax -7.58121 0.238252 4.24772
lowerneck -19.4468 -5.58226 -8.00418
upperneck 12.837 -6.4791 6.25432
head 7.59901 -2.90321 2.56385
rclavicle -1.04362e-015 -5.11871e-015
rhumerus -40.4943 -2.20999 -68.5598
rradius 120.545
rwrist -16.1971
rhand -16.1936 27.5584
rfingers 7.12502
rthumb 10.0134 -2.18337
lclavicle -1.04362e-015 -5.11871e-015
lhumerus -45.9785 -8.33126 90.8774
lradius 88.4216
lwrist 16.4627
lhand -19.3264 7.24828
lfingers 7.12502
lthumb 6.99011 37.1129
rfemur -25.7181 -0.759757 28.4764
rtibia 47.4948
rfoot -20.9208 -7.87934
rtoes 4.44106
lfemur -16.788 -8.19496 -16.135
ltibia 79.1808
lfoot 14.5505 -10.9885
ltoes -0.223995
168
root 10.1795 16.8026 2.16472 207.387 81.9073 201.916
lowerback 13.3009 -0.293189 -3.62689
upperback 0.0451159 -0.644576 3.27731
thorax -7.35644 -0.0936297 5.68966
lowerneck -20.256 -5.14231 -10.4594
upperneck 13.1814 -5.2778 7.06312
head 7.85208 -2.36709 3.3812
rclavicle 1.01877e-014 1.19271e-015
rhumerus -37.7681 0.403507 -67.9374
rradius 120.569
rwrist -16.8929
rhand -15.3248 28.2298
rfingers 7.12502
rthumb 10.8514 -1.46985
lclavicle 1.01877e-014 1.19271e-015
lhumerus -46.7438 -4.87275 90.8653
lradius 88.9519
lwrist 16.9019
lhand -19.4382 6.82934
lfingers 7.12502
lthumb 6.88212 36.6975
rfemur -24.205 -1.24414 29.0103
rtibia 47.2217
rfoot -21.8648 -7.97897
rtoes 3.60489
lfemur -19.0011 -7.7222 -15.4781
ltibia 81.1611
lfoot 13.2432 -10.3599
ltoes -0.671414
169
root 10.4845 16.7967 2.19409 206.022 82.0353 200.634
lowerback 13.2307 0.293766 -3.55554
upperback -0.00589123 0.0963966 2.72126
thorax -7.46136 0.253192 4.90355
lowerneck -20.0679 -5.33324 -9.13369
upperneck 12.8536 -5.86696 6.77474
head 7.71501 -2.60761 2.99171
rclavicle 1.79403e-014 5.36719e-015
rhumerus -37.2416 -1.26201 -68.0952
rradius 120.947
rwrist -16.6243
rhand -15.0716 28.5393
rfingers 7.12502
rthumb 11.0957 -1.14742
lclavicle 1.79403e-014 5.36719e-015
lhumerus -47.4592 -6.18037 90.3873
lradius 89.496
lwrist 17.727
lhand -18.7604 6.79358
lfingers 7.12502
lthumb 7.53642 36.6393
rfemur -22.754 -1.4352 28.9523
rtibia 46.9499
rfoot -22.7724 -7.73656
rtoes 5.37178
lfemur -21.1743 -7.26935 -15.3828
ltibia 82.6761
lfoot 12.0416 -9.53058
ltoes -0.121955
170
root 10.7878 16.8003 2.20381 204.867 82.2699 199.517
lowerback 13.0986 0.76577 -3.46238
upperback -0.0749915 0.711361 2.40094
thorax -7.52355 0.54262 4.38453
lowerneck -19.6839 -5.59388 -9.08655
upperneck 12.4636 -6.30206 7.05528
head 7.56667 -2.79192 3.02457
rclavicle -1.09332e-015 9.14409e-015
rhumerus -36.4601 -2.0538 -67.917
rradius 121.365
rwrist -16.3212
rhand -15.0187 28.7457
rfingers 7.12502
rthumb 11.1467 -0.938228
lclavicle -1.09332e-015 9.14409e-015
lhumerus -48.2137 -6.58357 90.3355
lradius 90.0442
lwrist 17.8606
lhand -18.4867 6.85288
lfingers 7.12502
lthumb 7.80059 36.689
rfemur -21.2645 -1.73107 28.7983
rtibia 46.4696
rfoot -23.2834 -7.41571
rtoes 4.1798
lfemur -23.2946 -6.40363 -15.4515
ltibia 83.7798
lfoot 10.4984 -9.27876
ltoes -1.90607
171
root 11.0933 16.8154 2.20518 202.692 82.6869 197.334
lowerback 12.8962 1.1967 -3.63413
upperback -0.119303 1.23837 2.13401
thorax -7.50863 0.798166 4.09302
lowerneck -19.7885 -5.89623 -9.58129
upperneck 12.599 -6.6833 7.66468
head 7.70242 -2.93652 3.25595
rclavicle 1.68718e-014 -8.74653e-015
rhumerus -35.6564 -2.43962 -67.7328
rradius 121.887
rwrist -16.1759
rhand -14.2287 29.0683
rfingers 7.12502
rthumb 11.9086 -0.573013
lclavicle 1.68718e-014 -8.74653e-015
lhumerus -49.0119 -6.84347 90.2918
lradius 90.6678
lwrist 17.89
lhand -19.0987 7.02845
lfingers 7.12502
lthumb 7.2099 36.8856
rfemur -19.8039 -1.85224 28.3678
rtibia 45.9538
rfoot -23.5335 -6.87048
rtoes 3.21804
lfemur -25.3034 -5.45845 -15.8904
ltibia 84.4533
lfoot 9.06255 -8.74638
ltoes -3.54677
172
root 11.3994 16.8549 2.24313 208.112 82.1826 202.846
lowerback 12.8091 1.33181 -2.94328
upperback -0.138092 1.54894 2.39537
thorax -7.49871 0.930881 3.91893
lowerneck -20.1906 -5.91541 -9.54595
upperneck 12.8473 -6.69707 7.67898
head 7.85282 -2.93014 3.24801
rclavicle -1.92821e-014 -4.17448e-015
rhumerus -34.7352 -2.4356 -67.5502
rradius 122.41
rwrist -16.668
rhand -13.9151 29.1026
rfingers 7.12502
rthumb 12.211 -0.520946
lclavicle -1.92821e-014 -4.17448e-015
lhumerus -49.7737 -6.79232 90.2371
lradius 91.3142
lwrist 17.4624
lhand -17.5268 7.19138
lfingers 7.12502
lthumb 8.72696 36.991
rfemur -18.0963 -2.00471 29.5042
rtibia 45.1909
rfoot -23.3906 -6.91848
rtoes 1.82878
lfemur -27.2971 -4.89227 -14.5395
ltibia 84.819
lfoot 7.84344 -8.6069
ltoes -2.83125
